<svg width="24" height="24" viewBox="0 0 24 24" fill="none" xmlns="http://www.w3.org/2000/svg">
<path d="M21.25 12C21.2517 13.2145 21.0137 14.4174 20.5495 15.5397C20.0853 16.662 19.4041 17.6816 18.545 18.54C17.6856 19.3995 16.6652 20.0813 15.5421 20.5463C14.4191 21.0113 13.2155 21.2504 12 21.25C10.6917 21.2532 9.39789 20.9771 8.20498 20.44L4.33798 21.012C4.14598 21.0433 3.94923 21.0274 3.76481 20.9654C3.5804 20.9034 3.4139 20.7974 3.27978 20.6565C3.14566 20.5155 3.04797 20.344 2.9952 20.1568C2.94243 19.9695 2.93618 19.7722 2.97698 19.582L3.51398 15.659C3.00441 14.5068 2.74406 13.2599 2.74998 12C2.74831 10.7855 2.9864 9.58265 3.45058 8.46037C3.91477 7.33809 4.59592 6.31848 5.45498 5.46C6.31436 4.60042 7.33474 3.91864 8.45778 3.45364C9.58081 2.98864 10.7845 2.74954 12 2.75C14.4546 2.75016 16.8087 3.72491 18.545 5.46C19.4037 6.31875 20.0846 7.33841 20.5488 8.46063C21.0129 9.58284 21.2512 10.7856 21.25 12Z" stroke="#606060" stroke-width="1.5" stroke-linecap="round" stroke-linejoin="round"/>
<path d="M12 12.61C12.1619 12.61 12.3171 12.5457 12.4316 12.4312C12.5461 12.3167 12.6105 12.1615 12.6105 11.9995C12.6105 11.8376 12.5461 11.6823 12.4316 11.5678C12.3171 11.4534 12.1619 11.389 12 11.389C11.838 11.389 11.6828 11.4534 11.5683 11.5678C11.4538 11.6823 11.3895 11.8376 11.3895 11.9995C11.3895 12.1615 11.4538 12.3167 11.5683 12.4312C11.6828 12.5457 11.838 12.61 12 12.61ZM16.2789 12.61C16.4409 12.61 16.5961 12.5457 16.7106 12.4312C16.8251 12.3167 16.8895 12.1615 16.8895 11.9995C16.8895 11.8376 16.8251 11.6823 16.7106 11.5678C16.5961 11.4534 16.4409 11.389 16.2789 11.389C16.117 11.389 15.9618 11.4534 15.8473 11.5678C15.7328 11.6823 15.6685 11.8376 15.6685 11.9995C15.6685 12.1615 15.7328 12.3167 15.8473 12.4312C15.9618 12.5457 16.117 12.61 16.2789 12.61ZM7.72095 12.61C7.80112 12.6101 7.88052 12.5944 7.95462 12.5638C8.02871 12.5331 8.09605 12.4882 8.15279 12.4316C8.20952 12.3749 8.25455 12.3077 8.28529 12.2336C8.31603 12.1596 8.33188 12.0802 8.33195 12C8.33202 11.9199 8.31629 11.8405 8.28567 11.7664C8.25505 11.6923 8.21014 11.6249 8.15349 11.5682C8.09685 11.5115 8.02958 11.4664 7.95554 11.4357C7.8815 11.405 7.80212 11.3891 7.72195 11.389C7.56004 11.389 7.40475 11.4534 7.29026 11.5678C7.17577 11.6823 7.11145 11.8376 7.11145 11.9995C7.11145 12.1615 7.17577 12.3167 7.29026 12.4312C7.40475 12.5457 7.55904 12.61 7.72095 12.61Z" stroke="#606060" stroke-width="1.5" stroke-linecap="round" stroke-linejoin="round"/>
</svg>
