<svg width="12" height="4" viewBox="0 0 12 4" fill="none" xmlns="http://www.w3.org/2000/svg">
<path d="M5.99995 2.61004C6.16187 2.61004 6.31715 2.54572 6.43164 2.43123C6.54613 2.31674 6.61045 2.16145 6.61045 1.99954C6.61045 1.83762 6.54613 1.68234 6.43164 1.56785C6.31715 1.45336 6.16187 1.38904 5.99995 1.38904C5.83804 1.38904 5.68275 1.45336 5.56826 1.56785C5.45377 1.68234 5.38945 1.83762 5.38945 1.99954C5.38945 2.16145 5.45377 2.31674 5.56826 2.43123C5.68275 2.54572 5.83804 2.61004 5.99995 2.61004ZM10.2789 2.61004C10.4409 2.61004 10.5961 2.54572 10.7106 2.43123C10.8251 2.31674 10.8895 2.16145 10.8895 1.99954C10.8895 1.83762 10.8251 1.68234 10.7106 1.56785C10.5961 1.45336 10.4409 1.38904 10.2789 1.38904C10.117 1.38904 9.96175 1.45336 9.84726 1.56785C9.73277 1.68234 9.66845 1.83762 9.66845 1.99954C9.66845 2.16145 9.73277 2.31674 9.84726 2.43123C9.96175 2.54572 10.117 2.61004 10.2789 2.61004ZM1.72095 2.61004C1.80112 2.6101 1.88052 2.59438 1.95462 2.56376C2.02871 2.53314 2.09605 2.48822 2.15279 2.43158C2.20952 2.37494 2.25455 2.30767 2.28529 2.23363C2.31603 2.15958 2.33188 2.08021 2.33195 2.00004C2.33202 1.91987 2.31629 1.84047 2.28567 1.76637C2.25505 1.69228 2.21014 1.62494 2.15349 1.5682C2.09685 1.51147 2.02958 1.46644 1.95554 1.4357C1.8815 1.40496 1.80212 1.3891 1.72195 1.38904C1.56004 1.38904 1.40475 1.45336 1.29026 1.56785C1.17577 1.68234 1.11145 1.83762 1.11145 1.99954C1.11145 2.16145 1.17577 2.31674 1.29026 2.43123C1.40475 2.54572 1.55904 2.61004 1.72095 2.61004Z" stroke="#606060" stroke-width="1.5" stroke-linecap="round" stroke-linejoin="round"/>
</svg>
