<svg width="24" height="24" viewBox="0 0 24 24" fill="none" xmlns="http://www.w3.org/2000/svg">
<g clip-path="url(#clip0_64_1870)">
<path d="M10.7472 2.4993C11.3049 1.4994 11.5832 1 12.0001 1C12.417 1 12.6953 1.4994 13.253 2.4993L13.396 2.7578C13.5555 3.0427 13.6347 3.1846 13.7579 3.2781C13.8811 3.3716 14.0351 3.4068 14.3431 3.4761L14.6225 3.5399C15.7049 3.7841 16.2461 3.9073 16.3748 4.3209C16.5035 4.7345 16.135 5.1668 15.3969 6.0292L15.2055 6.2525C14.9965 6.4978 14.892 6.6199 14.8447 6.7717C14.7974 6.9235 14.8128 7.0874 14.8447 7.4141L14.8733 7.7111C14.9855 8.8628 15.0405 9.4381 14.7039 9.6944C14.3673 9.9507 13.8602 9.7164 12.8471 9.25L12.5842 9.129C12.2971 8.997 12.153 8.931 12.0001 8.931C11.8472 8.931 11.7031 8.997 11.416 9.129L11.1531 9.25C10.1411 9.7175 9.63288 9.9507 9.29628 9.6944C8.95968 9.4381 9.01468 8.8628 9.12688 7.7122L9.15548 7.4141C9.18738 7.0874 9.20278 6.9235 9.15548 6.7717C9.10818 6.6199 9.00368 6.4967 8.79468 6.2525L8.60328 6.0292C7.86628 5.1668 7.49668 4.7345 7.62538 4.3209C7.75408 3.9073 8.29528 3.7841 9.37768 3.5399L9.65708 3.4761C9.96508 3.4068 10.1191 3.3716 10.2423 3.2781C10.3655 3.1846 10.4447 3.0427 10.6031 2.7578L10.7472 2.4993ZM20.1731 7.2502C20.4525 6.7497 20.5911 6.5 20.8001 6.5C21.0091 6.5 21.1477 6.7497 21.4271 7.2502L21.4986 7.3789C21.5778 7.5219 21.6174 7.5923 21.679 7.6396C21.7406 7.6858 21.8176 7.7034 21.9716 7.7386L22.1113 7.7694C22.6525 7.8926 22.9231 7.9531 22.9869 8.161C23.0518 8.3678 22.867 8.5834 22.4985 9.0146L22.4028 9.1257C22.2983 9.2489 22.2455 9.3105 22.2224 9.3864C22.1982 9.4612 22.207 9.5437 22.2224 9.7076L22.2367 9.8561C22.2917 10.4314 22.3203 10.7196 22.152 10.8472C21.9837 10.9748 21.7307 10.8582 21.2236 10.625L21.0916 10.5645C20.9486 10.4985 20.876 10.4655 20.8001 10.4655C20.7231 10.4655 20.6516 10.4985 20.5075 10.5645L20.3766 10.625C19.8706 10.8582 19.6176 10.9748 19.4482 10.8472C19.2799 10.7196 19.3074 10.4314 19.3635 9.8561L19.3778 9.7076C19.3932 9.5426 19.402 9.4612 19.3778 9.3864C19.3547 9.3094 19.3019 9.2489 19.1974 9.1257L19.1017 9.0146C18.7332 8.5834 18.5484 8.3678 18.6133 8.161C18.6771 7.9531 18.9477 7.8926 19.4889 7.7694L19.6286 7.7386C19.7826 7.7034 19.8596 7.6858 19.9212 7.6396C19.9828 7.5923 20.0224 7.5208 20.1016 7.3789L20.1731 7.2502ZM2.57308 7.2502C2.85358 6.7497 2.99108 6.5 3.20008 6.5C3.40908 6.5 3.54768 6.7497 3.82708 7.2502L3.89858 7.3789C3.97778 7.5219 4.01738 7.5923 4.07898 7.6396C4.14058 7.6858 4.21758 7.7034 4.37158 7.7386L4.51128 7.7694C5.05248 7.8926 5.32308 7.9531 5.38798 8.161C5.45178 8.3678 5.26698 8.5834 4.89848 9.0146L4.80278 9.1257C4.69828 9.2489 4.64548 9.3105 4.62238 9.3864C4.59818 9.4612 4.60698 9.5437 4.62238 9.7076L4.63668 9.8561C4.69168 10.4314 4.72028 10.7196 4.55198 10.8472C4.38368 10.9748 4.12958 10.8582 3.62358 10.625L3.49158 10.5645C3.34858 10.4985 3.27598 10.4655 3.20008 10.4655C3.12308 10.4655 3.05158 10.4985 2.90748 10.5645L2.77658 10.625C2.27058 10.8582 2.01758 10.9748 1.84818 10.8472C1.67988 10.7196 1.70738 10.4314 1.76348 9.8561L1.77778 9.7076C1.79318 9.5426 1.80198 9.4612 1.77778 9.3864C1.75468 9.3094 1.70188 9.2489 1.59738 9.1257L1.50168 9.0146C1.13318 8.5834 0.948377 8.3678 1.01218 8.161C1.07708 7.9531 1.34768 7.8926 1.88888 7.7694L2.02858 7.7386C2.18258 7.7034 2.25958 7.6858 2.32118 7.6396C2.38278 7.5923 2.42238 7.5208 2.50158 7.3789L2.57308 7.2502Z" stroke="#606060" stroke-width="1.25"/>
<path d="M4.30005 21.2267H6.78605C7.89705 21.2267 9.02235 21.3433 10.1036 21.5655C12.0342 21.9621 14.0205 22.0061 15.9666 21.6953C16.9214 21.5413 17.8586 21.3048 18.7078 20.8956C19.4734 20.5249 20.4117 20.0046 21.042 19.4205C21.6712 18.8375 22.3268 17.8838 22.791 17.138C23.1914 16.4978 22.9978 15.7135 22.3664 15.2372C22.0116 14.9792 21.5842 14.8401 21.1454 14.8401C20.7067 14.8401 20.2793 14.9792 19.9244 15.2372L17.9367 16.7387C17.1667 17.3217 16.3252 17.8574 15.3231 18.0169C15.2021 18.0356 15.0756 18.0532 14.9436 18.0686M14.9436 18.0686C14.9033 18.0733 14.863 18.0777 14.8226 18.0818M14.9436 18.0686C15.1197 18.021 15.2811 17.9303 15.4133 17.8046C15.5791 17.6612 15.7145 17.4861 15.8114 17.2895C15.9084 17.093 15.965 16.879 15.9779 16.6602C15.9908 16.4414 15.9598 16.2222 15.8866 16.0156C15.8135 15.809 15.6997 15.6191 15.5519 15.4572C15.4086 15.2981 15.2417 15.1619 15.0569 15.0535C11.9802 13.2176 7.19195 14.6157 4.30005 16.6672M14.9436 18.0686C14.9039 18.0773 14.8633 18.0817 14.8226 18.0818M14.8226 18.0818C14.1593 18.1485 13.4909 18.15 12.8272 18.0862" stroke="#606060" stroke-width="1.25" stroke-linecap="round"/>
<path d="M4.30012 15.85C4.30012 14.9387 3.56139 14.2 2.65012 14.2C1.73885 14.2 1.00012 14.9387 1.00012 15.85V21.35C1.00012 22.2612 1.73885 23 2.65012 23C3.56139 23 4.30012 22.2612 4.30012 21.35V15.85Z" stroke="#606060" stroke-width="1.25"/>
</g>
<defs>
<clipPath id="clip0_64_1870">
<rect width="24" height="24" fill="white"/>
</clipPath>
</defs>
</svg>
