<svg width="24" height="24" viewBox="0 0 24 24" fill="none" xmlns="http://www.w3.org/2000/svg">
<path d="M3.47804 3.29673C3.0671 3.29673 2.67299 3.46808 2.38241 3.77309C2.09183 4.07809 1.92859 4.49176 1.92859 4.92311V20.3736C1.92859 20.805 2.09183 21.2186 2.38241 21.5236C2.67299 21.8286 3.0671 22 3.47804 22H20.522C20.9329 22 21.327 21.8286 21.6176 21.5236C21.9082 21.2186 22.0714 20.805 22.0714 20.3736V4.92311C22.0714 4.49176 21.9082 4.07809 21.6176 3.77309C21.327 3.46808 20.9329 3.29673 20.522 3.29673H17.4231M6.57693 0.857178V5.73629M17.4231 0.857178V5.73629M6.57693 3.29673H14.3242" stroke="#606060" stroke-width="1.25" stroke-linecap="round" stroke-linejoin="round"/>
<path d="M12.3858 7.60982L13.6811 10.347C13.7101 10.4163 13.756 10.4763 13.8143 10.5209C13.8725 10.5654 13.941 10.593 14.0127 10.6007L16.8916 11.0594C16.9742 11.0703 17.0521 11.1057 17.1161 11.1616C17.1801 11.2174 17.2276 11.2913 17.253 11.3745C17.2784 11.4577 17.2807 11.5468 17.2594 11.6313C17.2382 11.7158 17.1945 11.7921 17.1333 11.8514L15.0074 13.9706C14.9757 14.034 14.9591 14.1046 14.9591 14.1763C14.9591 14.248 14.9757 14.3186 15.0074 14.382L15.415 17.3876C15.4325 17.4745 15.4256 17.5648 15.3951 17.6477C15.3647 17.7305 15.312 17.8023 15.2434 17.8544C15.1748 17.9064 15.0933 17.9364 15.0088 17.9407C14.9243 17.945 14.8404 17.9235 14.7673 17.8787L12.2045 16.454C12.1383 16.4227 12.0664 16.4065 11.9938 16.4065C11.9211 16.4065 11.8493 16.4227 11.783 16.454L9.22026 17.8787C9.14709 17.9227 9.06339 17.9437 8.97918 17.939C8.89497 17.9343 8.81383 17.9043 8.74548 17.8524C8.67713 17.8006 8.62446 17.7292 8.5938 17.6467C8.56313 17.5643 8.55577 17.4743 8.57259 17.3876L9.05292 14.382C9.07387 14.3123 9.07804 14.2383 9.06506 14.1665C9.05209 14.0947 9.02236 14.0274 8.97855 13.9706L6.8558 11.8351C6.79924 11.7753 6.75948 11.7003 6.74088 11.6183C6.72229 11.5363 6.72558 11.4505 6.75039 11.3703C6.77521 11.2902 6.82059 11.2187 6.88155 11.1639C6.94252 11.109 7.0167 11.0729 7.09597 11.0594L9.97484 10.617C10.0466 10.6093 10.115 10.5817 10.1733 10.5371C10.2315 10.4926 10.2775 10.4326 10.3064 10.3633L11.6033 7.62609C11.6379 7.54847 11.6925 7.48256 11.7609 7.43585C11.8293 7.38913 11.9089 7.36348 11.9905 7.36178C12.0721 7.36009 12.1526 7.38243 12.2227 7.42627C12.2928 7.47011 12.3483 7.5337 12.3858 7.60982Z" stroke="#606060" stroke-width="1.25" stroke-linecap="round" stroke-linejoin="round"/>
</svg>
