<svg width="16" height="12" viewBox="0 0 16 12" fill="none" xmlns="http://www.w3.org/2000/svg">
<path d="M8.00085 -0.00158691C5.7816 -0.00158691 3.91184 1.08891 2.37584 2.8814C1.85009 3.49415 1.39034 4.14891 1.01609 4.80291C0.790341 5.19891 0.65234 5.5049 0.57134 5.6939C0.49034 5.88215 0.49034 6.11466 0.57134 6.30291C0.65234 6.49191 0.790341 6.7979 1.01609 7.19389C1.39034 7.84789 1.85009 8.50265 2.37584 9.1154C3.91184 10.9079 5.7816 11.9984 8.00085 11.9984C10.2201 11.9984 12.0898 10.9079 13.6258 9.1154C14.1508 8.50265 14.6114 7.84789 14.9849 7.19389C15.2114 6.7979 15.3494 6.49191 15.4304 6.30291C15.5114 6.11466 15.5114 5.88215 15.4304 5.6939C15.3494 5.5049 15.2114 5.19891 14.9849 4.80291C14.6114 4.14891 14.1508 3.49415 13.6258 2.8814C12.0898 1.08891 10.2201 -0.00158691 8.00085 -0.00158691ZM8.00085 1.49841C9.7191 1.49841 11.2243 2.37666 12.5008 3.86541C12.9598 4.40091 13.3431 4.97691 13.6724 5.55291C13.7886 5.75616 13.8388 5.86115 13.9071 5.9984C13.8388 6.13565 13.7886 6.24065 13.6724 6.4439C13.3431 7.0199 12.9598 7.59589 12.5008 8.13139C11.2243 9.62014 9.7191 10.4984 8.00085 10.4984C6.2826 10.4984 4.77735 9.62014 3.50084 8.13139C3.04184 7.59589 2.65859 7.0199 2.32859 6.4439C2.21309 6.24065 2.16284 6.13565 2.09459 5.9984C2.16284 5.86115 2.21309 5.75616 2.32859 5.55291C2.65859 4.97691 3.04184 4.40091 3.50084 3.86541C4.77735 2.37666 6.2826 1.49841 8.00085 1.49841ZM8.00085 2.99841C6.3441 2.99841 5.00084 4.34165 5.00084 5.9984C5.00084 7.65515 6.3441 8.9984 8.00085 8.9984C9.6576 8.9984 11.0008 7.65515 11.0008 5.9984C11.0008 5.5844 10.6648 5.2484 10.2508 5.2484C9.83685 5.2484 9.50085 5.5844 9.50085 5.9984C9.50085 6.82715 8.82885 7.4984 8.00085 7.4984C7.1721 7.4984 6.50085 6.82715 6.50085 5.9984C6.50085 5.16965 7.1721 4.4984 8.00085 4.4984C8.1846 4.4984 8.37284 4.52915 8.54009 4.59215C8.92709 4.7384 9.3546 4.53441 9.50085 4.14666C9.6471 3.75966 9.4431 3.33216 9.05535 3.18591C8.71935 3.05916 8.3661 2.99841 8.00085 2.99841Z" fill="#606060" fill-opacity="0.7"/>
</svg>
