<svg width="20" height="22" viewBox="0 0 20 22" fill="none" xmlns="http://www.w3.org/2000/svg">
<path fill-rule="evenodd" clip-rule="evenodd" d="M12.7423 0H14.6995C15.5358 0 16.2326 4.47035e-08 16.7851 0.0818605C17.3693 0.167814 17.8967 0.35814 18.32 0.823721C18.7442 1.29033 18.9172 1.87051 18.9953 2.51209C19.0698 3.12093 19.0698 3.88837 19.0698 4.80726V20.4651H19.3023C19.4874 20.4651 19.6648 20.546 19.7957 20.6899C19.9265 20.8338 20 21.029 20 21.2326C20 21.4361 19.9265 21.6313 19.7957 21.7752C19.6648 21.9191 19.4874 22 19.3023 22H0.697674C0.51264 22 0.335183 21.9191 0.204344 21.7752C0.0735048 21.6313 0 21.4361 0 21.2326C0 21.029 0.0735048 20.8338 0.204344 20.6899C0.335183 20.546 0.51264 20.4651 0.697674 20.4651H0.930233V7.87702C0.930233 6.95814 0.930232 6.1907 1.00465 5.58288C1.08279 4.94028 1.25581 4.36009 1.67907 3.89451C2.10326 3.42791 2.6307 3.23758 3.21395 3.15163C3.76744 3.06977 4.46512 3.06977 5.30047 3.06977H8.39814C8.44558 2.17544 8.59628 1.40186 9.12093 0.823721C9.54512 0.35814 10.0726 0.168837 10.6558 0.0818605C11.2093 4.47035e-08 11.907 0 12.7423 0ZM9.07628 4.60465H5.34884C4.45209 4.60465 3.8493 4.6067 3.4 4.67321C2.97116 4.73665 2.78698 4.84614 2.66605 4.98019C2.54512 5.11321 2.44558 5.31479 2.38698 5.78651C2.32837 6.28074 2.32558 6.94381 2.32558 7.93023V20.4651H6.51163V18.1628C6.51163 17.9593 6.58513 17.764 6.71597 17.6201C6.84681 17.4762 7.02427 17.3953 7.2093 17.3953C7.39434 17.3953 7.57179 17.4762 7.70263 17.6201C7.83347 17.764 7.90698 17.9593 7.90698 18.1628V20.4651H12.093V7.93023C12.093 6.94381 12.0912 6.28074 12.0316 5.78651C11.973 5.31479 11.8735 5.11219 11.7526 4.97916C11.6316 4.84614 11.4474 4.73665 11.0177 4.67219C10.5702 4.6067 9.9693 4.60465 9.07628 4.60465ZM13.4884 20.4651V7.87702C13.4884 6.95814 13.4884 6.1907 13.414 5.58288C13.3358 4.94028 13.1628 4.36009 12.7386 3.89451C12.3153 3.42791 11.7879 3.23758 11.2037 3.15163C10.8084 3.0933 10.3386 3.07591 9.79907 3.07181C9.84558 2.35553 9.94791 2.08642 10.1079 1.9094C10.2288 1.77637 10.413 1.66688 10.8428 1.60242C11.2912 1.53693 11.894 1.53488 12.7907 1.53488H14.6512C15.5479 1.53488 16.1507 1.53693 16.6 1.60344C17.0288 1.66688 17.213 1.77637 17.334 1.91042C17.4549 2.04344 17.5544 2.24502 17.613 2.71674C17.6726 3.21098 17.6744 3.87405 17.6744 4.86047V20.4651H13.4884ZM3.72093 6.90698C3.72093 6.70344 3.79444 6.50824 3.92527 6.36431C4.05611 6.22039 4.23357 6.13953 4.4186 6.13953H10C10.185 6.13953 10.3625 6.22039 10.4933 6.36431C10.6242 6.50824 10.6977 6.70344 10.6977 6.90698C10.6977 7.11052 10.6242 7.30572 10.4933 7.44964C10.3625 7.59356 10.185 7.67442 10 7.67442H4.4186C4.23357 7.67442 4.05611 7.59356 3.92527 7.44964C3.79444 7.30572 3.72093 7.11052 3.72093 6.90698ZM3.72093 9.97674C3.72093 9.77321 3.79444 9.578 3.92527 9.43408C4.05611 9.29016 4.23357 9.2093 4.4186 9.2093H10C10.185 9.2093 10.3625 9.29016 10.4933 9.43408C10.6242 9.578 10.6977 9.77321 10.6977 9.97674C10.6977 10.1803 10.6242 10.3755 10.4933 10.5194C10.3625 10.6633 10.185 10.7442 10 10.7442H4.4186C4.23357 10.7442 4.05611 10.6633 3.92527 10.5194C3.79444 10.3755 3.72093 10.1803 3.72093 9.97674ZM3.72093 13.0465C3.72093 12.843 3.79444 12.6478 3.92527 12.5038C4.05611 12.3599 4.23357 12.2791 4.4186 12.2791C4.60364 12.2791 10 12.2791 10 12.2791C10.185 12.2791 10.3625 12.3599 10.4933 12.5038C10.6242 12.6478 10.6977 12.843 10.6977 13.0465C10.6977 13.25 10.6242 13.4453 10.4933 13.5892C10.3625 13.7331 10.185 13.814 10 13.814H4.4186C4.4186 13.814 4.05611 13.7331 3.92527 13.5892C3.79444 13.4453 3.72093 13.25 3.72093 13.0465Z" fill="#606060"/>
</svg>
