<svg width="25" height="24" viewBox="0 0 25 24" fill="none" xmlns="http://www.w3.org/2000/svg">
<path d="M22.5 10.5V12C22.5 16.714 22.5 19.071 21.035 20.535C19.572 22 17.214 22 12.5 22C7.786 22 5.429 22 3.964 20.535C2.5 19.072 2.5 16.714 2.5 12C2.5 7.286 2.5 4.929 3.964 3.464C5.43 2 7.786 2 12.5 2H14" stroke="#606060" stroke-width="1.5" stroke-linecap="round"/>
<path d="M7.5 14L9.297 11.844C10.009 10.989 10.365 10.562 10.833 10.562C11.302 10.562 11.658 10.989 12.37 11.844L12.63 12.156C13.342 13.011 13.698 13.438 14.167 13.438C14.635 13.438 14.991 13.011 15.703 12.156L17.5 10" stroke="#606060" stroke-width="1.5" stroke-linecap="round"/>
<path d="M19.5 8C21.1569 8 22.5 6.65685 22.5 5C22.5 3.34315 21.1569 2 19.5 2C17.8431 2 16.5 3.34315 16.5 5C16.5 6.65685 17.8431 8 19.5 8Z" stroke="#606060" stroke-width="1.5"/>
</svg>
