<svg width="25" height="24" viewBox="0 0 25 24" fill="none" xmlns="http://www.w3.org/2000/svg">
<path d="M11.5 14C14.5 14 19.5 18 19.5 18V2C19.5 2 14.5 6 11.5 6M11.5 14V6M11.5 14H6.5C4.291 14 2.5 13.111 2.5 10C2.5 6.889 4.291 6 6.5 6H11.5M5.5 14L8.5 22H12.5L9.5 14M19.5 13C19.894 13 20.2841 12.9224 20.6481 12.7716C21.012 12.6209 21.3427 12.3999 21.6213 12.1213C21.8999 11.8427 22.1209 11.512 22.2716 11.1481C22.4224 10.7841 22.5 10.394 22.5 10C22.5 9.60603 22.4224 9.21593 22.2716 8.85195C22.1209 8.48797 21.8999 8.15726 21.6213 7.87868C21.3427 7.6001 21.012 7.37913 20.6481 7.22836C20.2841 7.0776 19.894 7 19.5 7M11.5 18C12.5 18 14.5 17 14.5 15" stroke="#606060" stroke-width="1.25"/>
</svg>
