<svg width="21" height="18" viewBox="0 0 21 18" fill="none" xmlns="http://www.w3.org/2000/svg">
<path d="M2.115 18C1.655 18 1.271 17.846 0.963 17.538C0.654333 17.2293 0.5 16.845 0.5 16.385V5.615C0.5 5.155 0.654333 4.771 0.963 4.463C1.271 4.15433 1.655 4 2.115 4H5.073L6.923 2H12.115V3H7.355L5.513 5H2.115C1.93567 5 1.78833 5.05767 1.673 5.173C1.55767 5.28833 1.5 5.43567 1.5 5.615V16.385C1.5 16.5643 1.55767 16.7117 1.673 16.827C1.78833 16.9423 1.93567 17 2.115 17H16.885C17.0643 17 17.2117 16.9423 17.327 16.827C17.4423 16.7117 17.5 16.5643 17.5 16.385V8.385H18.5V16.385C18.5 16.845 18.346 17.229 18.038 17.537C17.7293 17.8457 17.345 18 16.885 18H2.115ZM17.5 5V3H15.5V2H17.5V0H18.5V2H20.5V3H18.5V5H17.5ZM9.5 14.73C10.5447 14.73 11.428 14.37 12.15 13.65C12.87 12.928 13.23 12.0447 13.23 11C13.23 9.95533 12.87 9.072 12.15 8.35C11.4273 7.63 10.544 7.27 9.5 7.27C8.456 7.27 7.57267 7.63 6.85 8.35C6.13 9.072 5.77 9.95533 5.77 11C5.77 12.0447 6.13033 12.928 6.851 13.65C7.57233 14.37 8.45533 14.73 9.5 14.73ZM9.5 13.73C8.72333 13.73 8.074 13.4693 7.552 12.948C7.03 12.4267 6.769 11.7773 6.769 11C6.769 10.2233 7.03 9.574 7.552 9.052C8.074 8.53 8.72333 8.269 9.5 8.269C10.2767 8.269 10.926 8.53 11.448 9.052C11.97 9.574 12.231 10.2233 12.231 11C12.231 11.7767 11.97 12.426 11.448 12.948C10.926 13.47 10.2767 13.731 9.5 13.731" fill="#606060"/>
</svg>
